<svg xmlns="http://www.w3.org/2000/svg" version="1.1" xmlns:xlink="http://www.w3.org/1999/xlink" xmlns:svgjs="http://svgjs.dev/svgjs" viewBox="0 0 2400 800" opacity="0.46"><defs><linearGradient x1="50%" y1="0%" x2="50%" y2="100%" id="sssurf-grad"><stop stop-color="hsl(265, 55%, 30%)" stop-opacity="1" offset="0%"></stop><stop stop-color="hsl(265, 55%, 60%)" stop-opacity="1" offset="100%"></stop></linearGradient></defs><g fill="url(#sssurf-grad)" transform="matrix(1,0,0,1,-10.4755859375,222.71746826171875)"><path d="M-10,10C242.08333333333331,36.25,697.9166666666666,141.83333333333334,1200,136C1702.0833333333335,130.16666666666666,2097.9166666666665,-73,2400,-18C2702.0833333333335,37,3254.1666666666665,208.75,2650,400C2045.8333333333335,591.25,156.25,795.8333333333334,-500,900" transform="matrix(1,0,0,1,0,47)" opacity="0.05"></path><path d="M-10,10C242.08333333333331,36.25,697.9166666666666,141.83333333333334,1200,136C1702.0833333333335,130.16666666666666,2097.9166666666665,-73,2400,-18C2702.0833333333335,37,3254.1666666666665,208.75,2650,400C2045.8333333333335,591.25,156.25,795.8333333333334,-500,900" transform="matrix(1,0,0,1,0,94)" opacity="0.29"></path><path d="M-10,10C242.08333333333331,36.25,697.9166666666666,141.83333333333334,1200,136C1702.0833333333335,130.16666666666666,2097.9166666666665,-73,2400,-18C2702.0833333333335,37,3254.1666666666665,208.75,2650,400C2045.8333333333335,591.25,156.25,795.8333333333334,-500,900" transform="matrix(1,0,0,1,0,141)" opacity="0.53"></path><path d="M-10,10C242.08333333333331,36.25,697.9166666666666,141.83333333333334,1200,136C1702.0833333333335,130.16666666666666,2097.9166666666665,-73,2400,-18C2702.0833333333335,37,3254.1666666666665,208.75,2650,400C2045.8333333333335,591.25,156.25,795.8333333333334,-500,900" transform="matrix(1,0,0,1,0,188)" opacity="0.76"></path><path d="M-10,10C242.08333333333331,36.25,697.9166666666666,141.83333333333334,1200,136C1702.0833333333335,130.16666666666666,2097.9166666666665,-73,2400,-18C2702.0833333333335,37,3254.1666666666665,208.75,2650,400C2045.8333333333335,591.25,156.25,795.8333333333334,-500,900" transform="matrix(1,0,0,1,0,235)" opacity="1.00"></path></g></svg>