<?xml version="1.0" standalone="no"?><svg xmlns="http://www.w3.org/2000/svg" viewBox="0 0 1440 320"><path fill="#a145b1" fill-opacity="1" d="M0,0L24,42.7C48,85,96,171,144,192C192,213,240,171,288,138.7C336,107,384,85,432,85.3C480,85,528,107,576,117.3C624,128,672,128,720,112C768,96,816,64,864,48C912,32,960,32,1008,58.7C1056,85,1104,139,1152,149.3C1200,160,1248,128,1296,101.3C1344,75,1392,53,1416,42.7L1440,32L1440,320L1416,320C1392,320,1344,320,1296,320C1248,320,1200,320,1152,320C1104,320,1056,320,1008,320C960,320,912,320,864,320C816,320,768,320,720,320C672,320,624,320,576,320C528,320,480,320,432,320C384,320,336,320,288,320C240,320,192,320,144,320C96,320,48,320,24,320L0,320Z"></path></svg>